<?xml version="1.0" encoding="utf-8"?>
<?xml-stylesheet type="text/xsl" href="rss1.xsl"?>
<rss version="2.0" xmlns:atom="http://www.w3.org/2005/Atom" xmlns:content="http://purl.org/rss/1.0/modules/content/" xmlns:dc="http://purl.org/dc/elements/1.1/" xmlns:media="http://search.yahoo.com/mrss/">
<channel>
 <title>Getty</title>
 <link>http://www.gettyimg.com/</link>
 <atom:link href="http://www.gettyimg.com/" rel="self" type="application/rss+xml" />

 
                <item>
                <title><![CDATA[【Albums (lossless)】FLAC - Kylie Minogue - Kylie Hits (Japanese Edition) | CD Rip | .FLAC 16bits ／ 44.1kHz]]></title>
                <link><![CDATA[https://sharemania.us/threads/kylie-minogue-kylie-hits-japanese-edition-cd-rip-flac-16bits-%EF%BC%8F-44-1khz.249208/]]></link>
                <description><![CDATA[<article>
<blockquote class="messageText SelectQuoteContainer ugc baseHtml">
<div style="text-align: center"><img src="https://i.imgur.com/qiBiFBQ.png" class="bbCodeImage LbImage" alt="[​IMG]" data-url="https://i.imgur.com/qiBiFBQ.png" style=""><br>
<br>
<span style="font-family: 'Book Antiqua'"><span style="font-size: 12px"><span style="color: #000000">includes the track "<b><i>Get Outta My Way (Yasutaka Nakata Remix)</i></b>"</span></span></span><br>
<br>
<span style="font-family: 'Book Antiqua'"><span style="font-size: 12px"><span style="color: #000000">contains </span><span style="color: #663300"><b><i>Scans</i></b></span><br>
<span style="color: #000000"><br>
<div class="bbCodeBlock bbCodeVfcHH HiddenContent">
<div class="attribution type">Hidden Content:</div>
<blockquote>You must reply before you can see the hidden data contained here.</blockquote>
</div></span></span></span>​</div>
<div class="messageTextEndMarker">&nbsp;</div>
</blockquote>
</article>]]></description>
                <author><![CDATA[Nuric]]></author>
                </item>

                
                <item>
                <title><![CDATA[【Albums (lossless)】PACK - (G)I-DLE - I SWAY [FLAC 24bits/96kHz + Dolby Atmos]]]></title>
                <link><![CDATA[https://sharemania.us/threads/g-i-dle-i-sway-flac-24bits-96khz-dolby-atmos.249209/]]></link>
                <description><![CDATA[<article>
<blockquote class="messageText SelectQuoteContainer ugc baseHtml">
<img src="https://images2.imgbox.com/25/7e/bAbnZK1I_o.jpg" class="bbCodeImage LbImage" alt="[​IMG]" data-url="https://images2.imgbox.com/25/7e/bAbnZK1I_o.jpg" style=""> <br>
<br>
<i><b>I Sway</b></i> is the seventh mini album by <a href="https://kpop.fandom.com/wiki/(G)I-DLE" target="_blank" class="externalLink" rel="nofollow">(G)I-DLE</a>. It was released on July 8, 2024 with "Klaxon" serving as the album's title track.<br>
The physical album comes in 13 versions: Wind, Wave, Beat, five individual Special versions, and five individual poca versions.<br>
<br>
<span style="font-size: 18px"><b>Track list</b></span><br>
<ol>
<li>"Klaxon (클락션)" - 2:55</li>
<li>"Last Forever" - 2:25</li>
<li>"Bloom" - 3:14</li>
<li>"Neverland" - 2:45</li>
</ol><span data-s9e-mediaembed="youtube" style="display:inline-block;width:100%;max-width:640px"><span style="display:block;overflow:hidden;position:relative;padding-bottom:56.25%"><iframe allowfullscreen="" loading="lazy" scrolling="no" style="background:url(https://i.ytimg.com/vi/rTKqSmX9XhQ/hqdefault.jpg) 50% 50% / cover;border:0;height:100%;left:0;position:absolute;width:100%" src="https://www.youtube.com/embed/rTKqSmX9XhQ"></iframe></span></span><br>
<br>
<div class="ToggleTriggerAnchor bbCodeSpoilerContainer">
<button type="button" class="button bbCodeSpoilerButton ToggleTrigger Tooltip JsOnly" data-target="> .SpoilerTarget"><span>Spoiler: <span class="SpoilerTitle">Hi-res</span></span></button>
<div class="SpoilerTarget bbCodeSpoilerText">
<div class="bbCodeBlock bbCodeVfcHH HiddenContent">
<div class="attribution type">Hidden Content:</div>
<blockquote>You must reply before you can see the hidden data contained here.</blockquote>
</div></div>
</div><br>
<div class="ToggleTriggerAnchor bbCodeSpoilerContainer">
<button type="button" class="button bbCodeSpoilerButton ToggleTrigger Tooltip JsOnly" data-target="> .SpoilerTarget"><span>Spoiler: <span class="SpoilerTitle">Atmos</span></span></button>
<div class="SpoilerTarget bbCodeSpoilerText">
<div class="bbCodeBlock bbCodeVfcHH HiddenContent">
<div class="attribution type">Hidden Content:</div>
<blockquote>You must reply before you can see the hidden data contained here.</blockquote>
</div></div>
</div>
<div class="messageTextEndMarker">&nbsp;</div>
</blockquote>
</article>]]></description>
                <author><![CDATA[Eric Lyn]]></author>
                </item>

                
                <item>
                <title><![CDATA[【Apple Music】WEB-RiP - Boomdabash &amp; Eiffel 65 - Heaven (1080p)]]></title>
                <link><![CDATA[https://sharemania.us/threads/boomdabash-eiffel-65-heaven-1080p.249211/]]></link>
                <description><![CDATA[<article>
<blockquote class="messageText SelectQuoteContainer ugc baseHtml">
<img src="https://i.postimg.cc/DZvXRnHX/Boomdabash-Eiffel-65-Heaven-mp4.jpg" class="bbCodeImage LbImage" alt="[​IMG]" data-url="https://i.postimg.cc/DZvXRnHX/Boomdabash-Eiffel-65-Heaven-mp4.jpg" style=""><br>
<br>
<div class="bbCodeBlock bbCodeCode">
<div class="type">Code:</div>
<pre>General
Complete name                  : G:\Новая папка\Boomdabash &amp; Eiffel 65 - Heaven.mp4
Format                         : MPEG-4
Format profile                 : Base Media
Codec ID                       : isom (isom/iso2/avc1/mp41)
File size                      : 238 MiB
Duration                       : 3 min 3 s
Overall bit rate               : 10.9 Mb/s
Frame rate                     : 25.000 FPS
Movie name                     : Heaven
Performer                      : Boomdabash &amp; Eiffel 65
Genre                          : Pop
ContentType                    : Music Video
Recorded date                  : 2022-12-14 08:00:00 UTC
Writing application            : Lavf56.30.100
Copyright                      : ℗ 2022 B1 Srl

Video
ID                             : 1
Format                         : AVC
Format/Info                    : Advanced Video Codec
Format profile                 : High@L4
Format settings                : CABAC / 4 Ref Frames
Format settings, CABAC         : Yes
Format settings, Reference fra : 4 frames
Format settings, Slice count   : 8 slices per frame
Codec ID                       : avc1
Codec ID/Info                  : Advanced Video Coding
Duration                       : 3 min 3 s
Bit rate                       : 10.6 Mb/s
Width                          : 1 688 pixels
Height                         : 1 080 pixels
Display aspect ratio           : 16:10
Frame rate mode                : Constant
Frame rate                     : 25.000 FPS
Color space                    : YUV
Chroma subsampling             : 4:2:0
Bit depth                      : 8 bits
Scan type                      : Progressive
Bits/(Pixel*Frame)             : 0.233
Stream size                    : 232 MiB (98%)
Color range                    : Limited
Color primaries                : BT.709
Transfer characteristics       : BT.709
Matrix coefficients            : BT.709
Codec configuration box        : avcC

Audio
ID                             : 2
Format                         : AAC LC
Format/Info                    : Advanced Audio Codec Low Complexity
Codec ID                       : mp4a-40-2
Duration                       : 3 min 3 s
Duration_LastFrame             : -17 ms
Bit rate mode                  : Constant
Bit rate                       : 265 kb/s
Channel(s)                     : 2 channels
Channel layout                 : L R
Sampling rate                  : 48.0 kHz
Frame rate                     : 46.875 FPS (1024 SPF)
Compression mode               : Lossy
Stream size                    : 5.76 MiB (2%)
Default                        : Yes
Alternate group                : 1

</pre>
</div>
<div class="bbCodeBlock bbCodeVfcHH HiddenContent">
<div class="attribution type">Hidden Content:</div>
<blockquote>You must either reply or click 'Like' to see the hidden information contained here.</blockquote>
</div>
<div class="messageTextEndMarker">&nbsp;</div>
</blockquote>
</article>]]></description>
                <author><![CDATA[vitalya3]]></author>
                </item>

                
                <item>
                <title><![CDATA[【Singles (lossless)】FLAC - Taeyeon - Heaven (Qobuz FLAC 24bits/96kHz)]]></title>
                <link><![CDATA[https://sharemania.us/threads/taeyeon-heaven-qobuz-flac-24bits-96khz.249207/]]></link>
                <description><![CDATA[<article>
<blockquote class="messageText SelectQuoteContainer ugc baseHtml">
<img src="https://images2.imgbox.com/c0/d4/ULmSJLfE_o.jpg" class="bbCodeImage LbImage" alt="[​IMG]" data-url="https://images2.imgbox.com/c0/d4/ULmSJLfE_o.jpg" style=""> <br>
<br>
"<b>Heaven</b>" is the first single album by <a href="https://kpop.fandom.com/wiki/Taeyeon" target="_blank" class="externalLink" rel="nofollow">Taeyeon</a>. It was released on July 8, 2024.<br>
<br>
<span data-s9e-mediaembed="youtube" style="display:inline-block;width:100%;max-width:640px"><span style="display:block;overflow:hidden;position:relative;padding-bottom:56.25%"><iframe allowfullscreen="" loading="lazy" scrolling="no" style="background:url(https://i.ytimg.com/vi/oE8hAQie8fw/hqdefault.jpg) 50% 50% / cover;border:0;height:100%;left:0;position:absolute;width:100%" src="https://www.youtube.com/embed/oE8hAQie8fw"></iframe></span></span><br>
<br>
<div class="ToggleTriggerAnchor bbCodeSpoilerContainer">
<button type="button" class="button bbCodeSpoilerButton ToggleTrigger Tooltip JsOnly" data-target="> .SpoilerTarget"><span>Spoiler: <span class="SpoilerTitle">Media Info</span></span></button>
<div class="SpoilerTarget bbCodeSpoilerText">Format : FLAC<br>
Format/Info : Free Lossless Audio Codec<br>
File size : 55.3 MiB<br>
Duration : 2 min 32 s<br>
Overall bit rate mode : Variable<br>
Overall bit rate : 3 041 kb/s<br>
Album : Heaven<br>
Album/Performer : Taeyeon<br>
Track name : Heaven<br>
Track name/Position : 1<br>
Track name/Total : 1<br>
Performer : Taeyeon<br>
Genre : K-Pop<br>
Recorded date : 2024-07-08<br>
ISRC : KRA302400228<br>
Copyright : 2024 SM Entertainment 2024 SM Entertainment<br>
Cover : Yes<br>
Cover MIME : image/jpeg<br>
Audio<br>
Format : FLAC<br>
Format/Info : Free Lossless Audio Codec<br>
Duration : 2 min 32 s<br>
Bit rate mode : Variable<br>
Bit rate : 3 032 kb/s<br>
Channel(s) : 2 channels<br>
Channel layout : L R<br>
Sampling rate : 96.0 kHz<br>
Bit depth : 24 bits<br>
Compression mode : Lossless<br>
Stream size : 55.2 MiB (100%)<br>
Writing library : Mutagen 1.47.0</div>
</div><br>
<div class="bbCodeBlock bbCodeVfcHH HiddenContent">
<div class="attribution type">Hidden Content:</div>
<blockquote>You must reply before you can see the hidden data contained here.</blockquote>
</div>
<div class="messageTextEndMarker">&nbsp;</div>
</blockquote>
</article>]]></description>
                <author><![CDATA[Eric Lyn]]></author>
                </item>

                
                <item>
                <title><![CDATA[【Requests】[REQ AUD] - Debelah Morgan - It's Not Over]]></title>
                <link><![CDATA[https://sharemania.us/threads/debelah-morgan-its-not-over.249212/]]></link>
                <description><![CDATA[<article>
<blockquote class="messageText SelectQuoteContainer ugc baseHtml">
Hi guys, can anyone get this album please in high quality for me? <br>
<br>
<br>
Thanks very much
<div class="messageTextEndMarker">&nbsp;</div>
</blockquote>
</article>]]></description>
                <author><![CDATA[SQUIREBUFFY]]></author>
                </item>

                
                <item>
                <title><![CDATA[【Albums (lossless)】ALAC - Ariana Grande - Yours Truly (Tenth Anniversary Bonus Videos Edition) (2013) [Apple Lossless 24 bits/48 kHz]]]></title>
                <link><![CDATA[https://sharemania.us/threads/ariana-grande-yours-truly-tenth-anniversary-bonus-videos-edition-2013-apple-lossless-24-bits-48-khz.249210/]]></link>
                <description><![CDATA[<article>
<blockquote class="messageText SelectQuoteContainer ugc baseHtml">
<img src="https://a5.mzstatic.com/us/r1000/0/Music116/v4/2d/d7/b8/2dd7b83a-c555-16a1-3f7d-763d38ec908d/23UMGIM99780.rgb.jpg" class="bbCodeImage LbImage" alt="[​IMG]" data-url="https://a5.mzstatic.com/us/r1000/0/Music116/v4/2d/d7/b8/2dd7b83a-c555-16a1-3f7d-763d38ec908d/23UMGIM99780.rgb.jpg" style=""><br>
<div style="text-align: center"><img src="https://bendodson.s3-eu-west-1.amazonaws.com/apple-music/lossless.png" class="bbCodeImage LbImage" alt="[​IMG]" data-url="https://bendodson.s3-eu-west-1.amazonaws.com/apple-music/lossless.png" style="">​</div>
<div class="ToggleTriggerAnchor bbCodeSpoilerContainer">
<button type="button" class="button bbCodeSpoilerButton ToggleTrigger Tooltip JsOnly" data-target="> .SpoilerTarget"><span>Spoiler: <span class="SpoilerTitle">MediaInfo</span></span></button>
<div class="SpoilerTarget bbCodeSpoilerText">
<div class="bbCodeBlock bbCodeCode">
<div class="type">Code:</div>
<pre>General
Format                                   : MPEG-4
Format profile                           : Apple audio with iTunes info
Codec ID                                 : M4A  (M4A /isom/iso2)
File size                                : 41.5 MiB
Duration                                 : 3 min 0 s
Overall bit rate mode                    : Variable
Overall bit rate                         : 1 927 kb/s
Album                                    : Yours Truly (Tenth Anniversary Bonus Videos Edition)
Album/Performer                          : Ariana Grande
Part/Position                            : 1
Track name                               : Lovin' It
Track name/Position                      : 5
Performer                                : Ariana Grande
Composer                                 : Khristopher Riddick-Tynes, Rickey Offord, Antonio Dixon, Mark Morales, Kirk Robinson, Nathaniel Robinson, Mark Rooney, Babyface, Leon Thomas &amp; R. Hammond
Genre                                    : Pop
Recorded date                            : 2013-08-30
Encoded date                             : 2024-04-09 23:27:25 UTC
Tagged date                              : 2024-04-09 23:27:25 UTC
Copyright                                : ℗ 2024 Republic Records, a division of UMG Recordings, Inc.
Cover                                    : Yes
Lyrics                                   : [00:10.25]It's the Rascals! / [00:11.10]Baby, don't you know you got all my love, all my love? / [00:16.18]Baby, don't you know you got all my love, all my love? / [00:21.26]Hold up, wait, before you go, just stay / [00:26.05]And talk to me for a little / [00:28.31]Baby, won't you loosen up just a little? Uh / [00:31.77]See, what you don't understand / [00:33.30]Is falling in love wasn't part of my plan / [00:35.93]Started with a crush, now I call you my man / [00:38.43]Doubt that I'll ever fall in love, ever fall in love again / [00:42.78]'Cause you give me chills every time we chill / [00:48.37]I spend all of my days doing, doing / [00:52.06]Nothin' but lovin' you, nothin' but lovin' you, baby / [00:55.10]Boy, you got all my time / [00:56.92]I'm lovin' your lovin', I'm lovin', I'm lovin' it, baby / [01:00.13]Boy, you got all my, all my / [01:02.18]Love and affection, all my attention / [01:04.70]You don't gotta question if I'm really / [01:07.24]Lovin' your lovin', I'm lovin', I'm lovin' it, baby / [01:10.42]Boy, you got all my, all my / [01:12.41]Hold up, wait, shut up and kiss me, baby / [01:17.45]I just wanna get a little taste / [01:19.83]I just wanna get a little taste before you go / [01:22.89]See, what you don't understand / [01:24.44]Is falling in love wasn't part of my plan / [01:27.04]Started with a crush, now I call you my man / [01:29.56]Doubt that I'll ever fall in love, ever fall in love again / [01:33.80]'Cause you give me chills every time we chill / [01:39.12]I spend all of my days doing, doing, babe / [01:43.07]Nothin but lovin' you, nothin but lovin' you, baby / [01:46.22]Boy, you got all my time / [01:48.00]I'm lovin' your lovin', I'm lovin' it your lovin' it, baby / [01:51.28]Boy, you got all my, all my / [01:53.31]Love and affection, all my attention / [01:55.73]You don't gotta question if I'm really / [01:58.30]Lovin' your lovin', I'm lovin' it, lovin' it, baby / [02:01.45]Boy, you got all my, all my / [02:04.58]Savor my trust, don't mess this up / [02:09.41]You got me fallin in love, you got me fallin in love / [02:11.91]You got me fallin' so hard / [02:13.02]Boy, you change the way I breathe / [02:15.45]When you put your lips on me / [02:18.07]I adore you / [02:21.11]So let me make it clear that you're the boy, you're all I need / [02:25.47]My baby / [02:26.43]Nothin but lovin' you, nothin but lovin' you, baby / [02:29.70]Boy, you got all my time / [02:31.35]I'm lovin' your lovin', I'm lovin', I'm lovin' it, baby / [02:34.70]Boy, you got all my, all my / [02:36.60]Love and affection, all my attention / [02:39.14]You don't gotta question if I'm really / [02:41.72]Lovin' your lovin', I'm lovin', I'm lovin' it, baby / [02:46.75]Baby, don't you know you got all my love, all my love? / [02:51.93]Baby, don't you know you got all my love, all my love?

Audio
ID                                       : 2
Format                                   : ALAC
Codec ID                                 : alac
Codec ID/Info                            : Apple Lossless Audio Codec
Duration                                 : 3 min 0 s
Duration_LastFrame                       : -41 ms
Bit rate mode                            : Variable
Bit rate                                 : 1 892 kb/s
Nominal bit rate                         : 2 304 kb/s
Channel(s)                               : 2 channels
Sampling rate                            : 48.0 kHz
Bit depth                                : 24 bits
Stream size                              : 40.7 MiB (98%)
Default                                  : Yes
Alternate group                          : 1
Encoded date                             : 2024-04-09 23:27:25 UTC
Tagged date                              : 2024-04-09 23:27:25 UTC
</pre>
</div></div>
</div><b>Released:</b> Aug 30, 2013<br>
<b>Source:</b> Apple<br>
<b>File Size:</b> 3.86 GB<br>
<b>Tracklist:</b><br>
01 Honeymoon Avenue<br>
02 Baby I<br>
03 Right There (feat. Big Sean)<br>
04 Tattooed Heart<br>
05 Lovin' It<br>
06 Piano<br>
07 Daydreamin'<br>
08 The Way (feat. Mac Miller)<br>
09 You’ll Never Know<br>
10 Almost Is Never Enough<br>
11 Popular Song<br>
12 Better Left Unsaid<br>
13 The Way (feat. Mac Miller) [Spanglish Version]<br>
14 Honeymoon Avenue (Live from London)<br>
15 Daydreamin' (Live from London)<br>
16 Baby I (Live from London)<br>
17 Tattooed Heart (Live from London)<br>
18 Right There (feat. Big Sean) [Live from London]<br>
19 The Way (feat. Mac Miller) [Live from London]<br>
20 <img src="https://i.ibb.co/55vjynC/video.png" class="bbCodeImage LbImage" alt="[​IMG]" data-url="https://i.ibb.co/55vjynC/video.png" style=""> The Way (feat. Mac Miller) [Closed-Captioned]<br>
21 <img src="https://i.ibb.co/55vjynC/video.png" class="bbCodeImage LbImage" alt="[​IMG]" data-url="https://i.ibb.co/55vjynC/video.png" style=""> Right There (feat. Big Sean)<br>
22 <img src="https://i.ibb.co/55vjynC/video.png" class="bbCodeImage LbImage" alt="[​IMG]" data-url="https://i.ibb.co/55vjynC/video.png" style=""> Baby I (Closed-Captioned)<br>
23 <img src="https://i.ibb.co/55vjynC/video.png" class="bbCodeImage LbImage" alt="[​IMG]" data-url="https://i.ibb.co/55vjynC/video.png" style=""> Popular Song (feat. Ariana Grande) [Closed-Captioned]<br>
24 <img src="https://i.ibb.co/55vjynC/video.png" class="bbCodeImage LbImage" alt="[​IMG]" data-url="https://i.ibb.co/55vjynC/video.png" style=""> Almost Is Never Enough (feat. Nathan Sykes) [Closed-Captioned]<br>
25 <img src="https://i.ibb.co/55vjynC/video.png" class="bbCodeImage LbImage" alt="[​IMG]" data-url="https://i.ibb.co/55vjynC/video.png" style=""> Honeymoon Avenue (Live from London / 2023)<br>
26 <img src="https://i.ibb.co/55vjynC/video.png" class="bbCodeImage LbImage" alt="[​IMG]" data-url="https://i.ibb.co/55vjynC/video.png" style=""> Daydreamin' (Live from London / 2023)<br>
27 <img src="https://i.ibb.co/55vjynC/video.png" class="bbCodeImage LbImage" alt="[​IMG]" data-url="https://i.ibb.co/55vjynC/video.png" style=""> Baby I (Live from London / 2023)<br>
28 <img src="https://i.ibb.co/55vjynC/video.png" class="bbCodeImage LbImage" alt="[​IMG]" data-url="https://i.ibb.co/55vjynC/video.png" style=""> Tattooed Heart (Live from London / 2023)<br>
29 <img src="https://i.ibb.co/55vjynC/video.png" class="bbCodeImage LbImage" alt="[​IMG]" data-url="https://i.ibb.co/55vjynC/video.png" style=""> Right There (feat. Big Sean) [Live from London / 2023]<br>
30 <img src="https://i.ibb.co/55vjynC/video.png" class="bbCodeImage LbImage" alt="[​IMG]" data-url="https://i.ibb.co/55vjynC/video.png" style=""> The Way (Live from London / 2023)<br>
<div class="bbCodeBlock bbCodeVfcHH HiddenContent">
<div class="attribution type">Hidden Content:</div>
<blockquote>You must reply before you can see the hidden data contained here.</blockquote>
</div>
<div class="messageTextEndMarker">&nbsp;</div>
</blockquote>
</article>]]></description>
                <author><![CDATA[itunesboy]]></author>
                </item>

                </channel></rss>